<?xml version="1.0" encoding="UTF-8"?>
<svg version="1.1" xmlns="http://www.w3.org/2000/svg" width="512" height="512">
<path d="M0 0 C8.04957211 6.98618778 15.09504874 15.1158608 22.15234375 23.08203125 C23.43818359 24.52642578 23.43818359 24.52642578 24.75 26 C25.4821875 26.83917969 26.214375 27.67835938 26.96875 28.54296875 C31.72063221 33.27044061 34.7894336 35.07675598 41.5625 35.21875 C49.91438595 34.96513252 58.02927265 33.71123047 66.25 32.3125 C67.86097198 32.04847845 69.47197531 31.78464811 71.08300781 31.52099609 C79.51982367 30.1142378 87.88960386 28.51094375 96.234375 26.6328125 C97.04784393 26.44980591 97.86131287 26.26679932 98.69943237 26.07824707 C99.50808746 25.89612671 100.31674255 25.71400635 101.14990234 25.52636719 C113.64889351 22.71355325 125.7370277 20.08390859 138.625 20.0625 C139.60436523 20.05943848 140.58373047 20.05637695 141.59277344 20.05322266 C147.39141845 20.23797834 152.61766884 21.08826738 157.25 24.8125 C160.78492732 31.61187208 159.96969981 40.38008552 158.4375 47.6875 C154.99008939 52.6123723 150.43522764 54.91575843 145.25 57.8125 C144.07572437 58.53075916 142.9025891 59.25088527 141.73046875 59.97265625 C129.87043561 67.01169849 117.15657371 70.29915413 103.91064453 73.81982422 C98.01276409 75.41918275 92.16495004 77.18046751 86.3125 78.9375 C71.30562444 83.40230198 56.30732017 87.85177869 41.125 91.6875 C40.27687744 91.90301514 39.42875488 92.11853027 38.55493164 92.34057617 C37.77110107 92.53498291 36.98727051 92.72938965 36.1796875 92.9296875 C35.49116699 93.10097168 34.80264648 93.27225586 34.09326172 93.44873047 C32.25 93.8125 32.25 93.8125 29.25 93.8125 C29.28480469 94.8540625 29.31960938 95.895625 29.35546875 96.96875 C30.00076291 124.21236308 21.43977026 154.5711806 3.625 175.625 C-5.88754618 185.41776072 -17.02292601 192.88589071 -29.75 197.8125 C-30.83925781 198.25078125 -31.92851562 198.6890625 -33.05078125 199.140625 C-65.66107909 211.1835826 -104.57666592 210.09085024 -136.27734375 195.66796875 C-154.0273673 186.18398541 -169.73166104 173.04792919 -178.75 154.8125 C-179.44921875 151.9453125 -179.44921875 151.9453125 -179.75 149.8125 C-180.30534424 149.93778076 -180.86068848 150.06306152 -181.43286133 150.19213867 C-205.84697923 155.67022252 -230.20730498 159.98390147 -255.01370239 163.19445801 C-267.15164091 164.7654856 -279.24783602 166.43710551 -291.3125 168.5 C-293.10264526 168.80587036 -293.10264526 168.80587036 -294.92895508 169.11791992 C-297.1678669 169.50277003 -299.40656841 169.88884642 -301.64501953 170.27636719 C-333.28195372 175.73907418 -333.28195372 175.73907418 -345.75 171.8125 C-345.98264031 167.58426232 -346.12452126 163.35766663 -346.25 159.125 C-346.31703125 157.92681641 -346.3840625 156.72863281 -346.453125 155.49414062 C-346.49179687 153.75874023 -346.49179687 153.75874023 -346.53125 151.98828125 C-346.57314453 150.92520752 -346.61503906 149.86213379 -346.65820312 148.7668457 C-345.44121696 144.80804205 -343.62774365 143.88964897 -340.09194946 141.93434143 C-336.21695469 140.07814011 -332.2727488 138.58073097 -328.21484375 137.17578125 C-327.31060669 136.85456299 -326.40636963 136.53334473 -325.47473145 136.20239258 C-322.54905494 135.16663986 -319.61855378 134.14542546 -316.6875 133.125 C-314.66074526 132.41145866 -312.63413492 131.69750703 -310.60766602 130.9831543 C-297.65626815 126.43579875 -284.65560861 122.06105915 -271.54467773 117.99536133 C-261.27775999 114.78781896 -251.41720119 110.84600258 -241.8125 106 C-241.14355713 105.66307129 -240.47461426 105.32614258 -239.78540039 104.97900391 C-220.73299319 95.24028603 -220.73299319 95.24028603 -207.75 78.8125 C-206.94260873 76.23163205 -206.19583076 73.67239226 -205.5 71.0625 C-199.41008136 48.36809705 -186.57922126 27.9416804 -170.75 10.8125 C-170.28980469 10.30315918 -169.82960937 9.79381836 -169.35546875 9.26904297 C-127.65421562 -36.62336636 -46.98347427 -36.4893552 0 0 Z M-118.75 59.8125 C-125.72052231 68.92882363 -130.0105589 78.35116295 -130.75 89.8125 C-123.34762305 89.26503254 -116.81087104 87.47753982 -109.75 85.25 C-99.21684949 82.02244168 -88.65320328 79.22589694 -77.9375 76.6875 C-68.19353112 74.37552462 -58.47322068 72.01970448 -48.8125 69.375 C-47.90717529 69.1279834 -47.00185059 68.8809668 -46.0690918 68.62646484 C-41.80807388 67.48979424 -41.80807388 67.48979424 -37.75 65.8125 C-39.34774964 57.80638497 -46.35121233 53.30229106 -52.70996094 48.95629883 C-75.26713692 34.14229492 -100.95963703 40.79624647 -118.75 59.8125 Z M-46.55859375 113.6484375 C-47.31051498 113.84350891 -48.06243622 114.03858032 -48.83714294 114.23956299 C-51.28970618 114.87996157 -53.73871746 115.53280422 -56.1875 116.1875 C-57.43965302 116.51847687 -57.43965302 116.51847687 -58.71710205 116.85614014 C-75.26430205 121.23812996 -91.53897553 126.32411702 -107.75 131.8125 C-105.09398638 137.78872283 -99.54784148 139.37281423 -93.75 141.8125 C-81.37187054 146.07250559 -69.38585631 143.78454761 -57.7265625 138.421875 C-46.45612099 132.55506983 -37.12542474 124.09478367 -32.75 111.8125 C-37.6134891 111.59033654 -41.89240466 112.40522727 -46.55859375 113.6484375 Z " fill="#1E1E1E" transform="translate(345.75,168.1875)"/>
<path d="M0 0 C0.9075 0.34675781 1.815 0.69351563 2.75 1.05078125 C14.72829083 5.68599752 25.57924357 12.02632407 34.8515625 20.95703125 C37.00800159 23.06988302 37.00800159 23.06988302 39.5703125 25.03125 C41.75777551 26.80372807 43.45905286 28.53022277 45.25 30.6875 C49.25744308 35.37743338 53.60749252 39.67391986 58 44 C58.886875 44.9075 59.77375 45.815 60.6875 46.75 C67.89872201 53.76632412 72.77514915 55.18562914 82.6875 55.125 C83.4904248 55.12089111 84.29334961 55.11678223 85.12060547 55.11254883 C93.17378857 55.03682122 100.0982587 54.87084621 107.59375 51.69140625 C112.1018363 50.39606327 116.84807763 50.46579514 121.51171875 50.30859375 C124.87431309 50.011119 126.9231328 49.27350697 130 48 C132.87721059 47.36635656 135.77904862 46.9037403 138.6875 46.4375 C143.99715295 45.73578871 143.99715295 45.73578871 149 44 C150.57992517 43.8209797 152.1643289 43.68022407 153.75 43.5625 C157.78778773 43.19753497 161.17072969 42.36151833 165 41 C170.13908087 40.10320495 175.11479076 39.81731715 180.3125 39.8125 C181.02728516 39.80025391 181.74207031 39.78800781 182.47851562 39.77539062 C184.32052524 39.7701823 186.16208123 39.87719456 188 40 C188.66 40.66 189.32 41.32 190 42 C189.83658034 45.00403793 189.53067039 46.49771431 187.3203125 48.58984375 C186.59585937 49.03457031 185.87140625 49.47929687 185.125 49.9375 C184.31160156 50.44023437 183.49820312 50.94296875 182.66015625 51.4609375 C178.15288843 54.0686666 173.60942871 56.57743093 169 59 C168.175 59.45632812 167.35 59.91265625 166.5 60.3828125 C161.01924693 63.31642072 155.74162731 65.01730178 149.6640625 66.32421875 C147.07270334 66.867286 147.07270334 66.867286 145.1953125 67.96875 C141.71725129 69.60257235 138.00857875 70.09495995 134.25 70.8125 C124.16685932 72.83513693 114.0933406 75.26158105 104.6796875 79.4921875 C100.16036002 81.3440563 95.62116533 82.45132244 90.875 83.5625 C84.5546394 84.97713397 84.5546394 84.97713397 78.4453125 87.06640625 C74.73692041 88.48223007 70.91893423 88.84033514 67 89.375 C57.67535626 90.75322391 48.627735 92.50553997 40.2421875 96.98828125 C35.74808645 99.28303929 31.24273767 100.30053039 26.3125 101.25 C25.48427734 101.42273438 24.65605469 101.59546875 23.80273438 101.7734375 C19.81979498 102.57704096 16.08532709 103.23297181 12 103 C12 103.66 12 104.32 12 105 C7.62196729 106.425406 3.37363188 107.28512657 -1.1875 107.9375 C-9.08901785 109.09868747 -16.71139541 110.86442535 -24.26953125 113.4453125 C-28.93811485 115.02148323 -33.65951744 116.24373405 -38.4375 117.4375 C-44.33017118 118.94630665 -50.03130033 120.51990884 -55.6015625 123.0078125 C-62.43261593 125.83368802 -69.39164495 127.66666229 -76.625 129.125 C-77.43195313 129.29386719 -78.23890625 129.46273437 -79.0703125 129.63671875 C-83.69937687 130.59108754 -88.31390966 131.384401 -93 132 C-93 132.66 -93 133.32 -93 134 C-92.01 134.33 -91.02 134.66 -90 135 C-88.5625 136.75 -88.5625 136.75 -87 139 C-79.92162393 148.33395922 -70.74145915 154.53155299 -60 159 C-59.19820312 159.3403125 -58.39640625 159.680625 -57.5703125 160.03125 C-41.91378977 165.43350065 -23.49237474 162.7890889 -8.9375 155.8125 C6.43268637 147.96027187 17.43089029 135.45743319 23 119 C24.35452891 113.39293738 25.22026284 107.71123273 26 102 C27.485 101.505 27.485 101.505 29 101 C29.97521539 117.9037334 21.55045582 134.08706337 10.5546875 146.453125 C-2.3536357 159.3219732 -19.85632116 166.18210657 -37.875 166.4375 C-56.17065083 166.31503004 -72.46849651 159.47862929 -85.421875 146.65625 C-94 137.81818182 -94 137.81818182 -94 134 C-97.91841948 134.6143209 -101.834348 135.24329871 -105.75 135.875 C-106.86117187 136.04902344 -107.97234375 136.22304688 -109.1171875 136.40234375 C-110.18710938 136.57636719 -111.25703125 136.75039063 -112.359375 136.9296875 C-113.34389648 137.08679199 -114.32841797 137.24389648 -115.34277344 137.40576172 C-117.86848789 137.97058981 -119.73260916 138.79080656 -122 140 C-123.80276493 140.34679142 -125.61770038 140.6330185 -127.4375 140.875 C-133.20219 141.75591229 -138.5395342 143.32568931 -144.078125 145.12109375 C-146.45300814 145.83546368 -148.61098836 146.336895 -151.0625 146.625 C-153.88254975 146.7987275 -153.88254975 146.7987275 -155.65234375 147.92578125 C-159.13534541 149.51950081 -162.73577949 149.95856309 -166.5 150.5625 C-168.01062269 150.81256063 -169.52104687 151.06382411 -171.03125 151.31640625 C-171.69705078 151.42412354 -172.36285156 151.53184082 -173.04882812 151.64282227 C-174.38939435 151.88822372 -175.72116127 152.18555238 -177.04101562 152.52514648 C-181.15235106 153.52172517 -185.47684864 153.4689656 -189.6875 153.71875 C-192.32963311 153.94308206 -194.46147944 154.35939406 -197 155 C-199.72866401 155.31429638 -202.45465918 155.60345658 -205.1875 155.875 C-212.14211927 156.60349849 -218.98764844 157.61624763 -225.86157227 158.8918457 C-230.4371877 159.73834796 -235.01150894 160.44314126 -239.625 161.0625 C-243.05072441 161.532469 -246.17117556 162.0489073 -249.5 163 C-253.84032936 164.2400941 -258.1513063 164.76147463 -262.62109375 165.359375 C-269.14183056 166.27249556 -275.61593387 167.49446284 -282.09179688 168.67919922 C-283.51782227 168.93467529 -283.51782227 168.93467529 -284.97265625 169.1953125 C-285.82093994 169.35016113 -286.66922363 169.50500977 -287.54321289 169.66455078 C-290.05994129 170.00818437 -292.46321457 170.05836902 -295 170 C-295.33 168.35 -295.66 166.7 -296 165 C-287.18524038 157.61332993 -277.17979378 154.65021269 -266.41796875 151.1484375 C-263.56170028 150.18873129 -260.7922894 149.12662807 -258 148 C-256.35360621 147.53900974 -254.70699659 147.0787539 -253.05859375 146.625 C-250.64241705 145.89143592 -248.30108763 145.01351459 -245.9375 144.125 C-241.89129436 142.62681034 -237.85204792 141.37582276 -233.6875 140.25 C-227.27264188 138.45667502 -221.01618861 136.31931644 -214.75 134.0625 C-213.83951904 133.73862305 -212.92903809 133.41474609 -211.9909668 133.08105469 C-205.74857107 130.80245297 -199.90060321 128.04414696 -194 125 C-192.62730637 124.33118298 -191.25243394 123.66681155 -189.875 123.0078125 C-175.5610927 116.09011616 -160.14925166 107.58276272 -154 92 C-153.18429224 89.0571233 -152.44348309 86.10279416 -151.71386719 83.13769531 C-146.13872776 61.46607302 -132.80364085 41.570854 -117 26 C-116.236875 25.21625 -115.47375 24.4325 -114.6875 23.625 C-113.3571875 22.325625 -113.3571875 22.325625 -112 21 C-111.51789063 20.49855469 -111.03578125 19.99710938 -110.5390625 19.48046875 C-99.94189051 9.24292929 -86.08117101 3.44206403 -72 0 C-70.51054014 -0.51268521 -69.02908657 -1.05014293 -67.5625 -1.625 C-61.0332955 -4.14504384 -54.79771182 -5.44546571 -47.875 -6.125 C-47.03678711 -6.2077417 -46.19857422 -6.2904834 -45.33496094 -6.37573242 C-29.29544538 -7.8723232 -14.86615724 -6.59923967 0 0 Z M-77 67 C-83.97052231 76.11632363 -88.2605589 85.53866295 -89 97 C-81.59762305 96.45253254 -75.06087104 94.66503982 -68 92.4375 C-57.46684949 89.20994168 -46.90320328 86.41339694 -36.1875 83.875 C-26.44353112 81.56302462 -16.72322068 79.20720448 -7.0625 76.5625 C-6.15717529 76.3154834 -5.25185059 76.0684668 -4.3190918 75.81396484 C-0.05807388 74.67729424 -0.05807388 74.67729424 4 73 C2.40225036 64.99388497 -4.60121233 60.48979106 -10.95996094 56.14379883 C-33.51713692 41.32979492 -59.20963703 47.98374647 -77 67 Z " fill="#F9F9F9" transform="translate(304,161)"/>
<path d="M0 0 C2.875 -0.125 2.875 -0.125 6 0 C8.82928562 2.82928562 8.33363424 4.72879689 8.375 8.6875 C8.34631935 16.89313418 6.43923218 24.17680469 4 32 C3.64165965 33.29963767 3.28752583 34.60044214 2.9375 35.90234375 C-3.55072326 59.29918262 -16.58291997 76.64039811 -37.265625 89.46484375 C-61.22118748 102.91418097 -95.56709294 105.42441712 -121.73046875 98.39453125 C-133.02979672 94.91401592 -143.01653601 89.68322578 -152 82 C-153.051875 81.29875 -154.10375 80.5975 -155.1875 79.875 C-161.28077648 75.81281568 -165.46796017 71.48165867 -169.6875 65.5625 C-170.15994141 64.91990234 -170.63238281 64.27730469 -171.11914062 63.61523438 C-178.19934995 53.83401953 -178.19934995 53.83401953 -177.6875 49.125 C-177.460625 48.42375 -177.23375 47.7225 -177 47 C-173.535 46.505 -173.535 46.505 -170 46 C-170 44.02 -170 42.04 -170 40 C-165.56356484 39.56505538 -163.67136622 39.45998804 -160.125 42.3125 C-158 45 -158 45 -157 48 C-156.113125 47.649375 -155.22625 47.29875 -154.3125 46.9375 C-150.80309718 45.94427279 -149.40794246 45.8906854 -146 47 C-144.359375 48.78515625 -144.359375 48.78515625 -142.75 51.0625 C-133.95146265 61.50453772 -115.09086132 67.741404 -102 70 C-98.39769929 70.21269911 -94.79551669 70.18510583 -91.1875 70.1875 C-90.22779297 70.19974609 -89.26808594 70.21199219 -88.27929688 70.22460938 C-82.46440605 70.236517 -77.5918731 69.55637392 -72 68 C-70.68 68 -69.36 68 -68 68 C-68 67.34 -68 66.68 -68 66 C-67.26136719 65.64808594 -66.52273438 65.29617188 -65.76171875 64.93359375 C-45.81257647 55.22518016 -31.67343724 43.2184102 -23.89453125 22.06640625 C-23 20 -23 20 -21 18 C-17.9375 17.8125 -17.9375 17.8125 -15 18 C-14.67 18.33 -14.34 18.66 -14 19 C-11.90270059 14.39433049 -11.6878663 10.42423616 -11.5390625 5.42578125 C-11 3 -11 3 -9.1484375 1.66796875 C-7 1 -7 1 -4 1 C-4 1.66 -4 2.32 -4 3 C-3.01 3 -2.02 3 -1 3 C-0.67 2.01 -0.34 1.02 0 0 Z " fill="#F9F9F9" transform="translate(355,261)"/>
<path d="M0 0 C0.90290771 -0.01409912 1.80581543 -0.02819824 2.73608398 -0.04272461 C18.94569382 0.07470402 32.39420379 8.50869264 45.203125 17.6640625 C46.98181601 18.92062163 48.81732722 20.09771497 50.6796875 21.2265625 C58.07924957 26.62412104 62.02512381 36.93256097 66.125 45 C66.47546387 45.68674805 66.82592773 46.37349609 67.18701172 47.08105469 C68.64634303 50.02912449 69.625 52.04138947 69.625 55.375 C68.37009766 55.08882812 68.37009766 55.08882812 67.08984375 54.796875 C63.12146448 54.31369015 60.09478338 54.80914963 56.1875 55.625 C54.93066406 55.87765625 53.67382812 56.1303125 52.37890625 56.390625 C49.22490264 57.21768942 46.55792198 58.30584347 43.60668945 59.64697266 C40.32779962 60.85156173 36.92580799 61.28779064 33.48925781 61.85644531 C28.90855925 62.6857501 24.47338986 63.9755288 20 65.25 C13.31819213 67.11591236 6.64005426 68.89951408 -0.125 70.4375 C-11.05141832 72.93900981 -21.85645066 75.88147312 -32.51489258 79.35449219 C-39.85463657 81.74119531 -47.11979499 83.44991701 -54.7265625 84.75 C-58.62758695 85.41826971 -62.49062855 86.21105299 -66.359375 87.04296875 C-68.375 87.375 -68.375 87.375 -72.375 87.375 C-73.91336706 75.69989284 -74.4434822 63.8242742 -71.375 52.375 C-71.16875 51.53324219 -70.9625 50.69148438 -70.75 49.82421875 C-69.38684739 44.72014165 -67.58006497 40.60096559 -64.55859375 36.26171875 C-63.27546988 34.39588655 -63.27546988 34.39588655 -62.67578125 32.1171875 C-60.67525862 27.89986952 -57.43833813 25.04634345 -54.125 21.8125 C-53.46886719 21.15314453 -52.81273437 20.49378906 -52.13671875 19.81445312 C-48.45081948 16.16885693 -44.82357464 13.08754551 -40.375 10.375 C-39.42882812 9.77558594 -38.48265625 9.17617187 -37.5078125 8.55859375 C-25.46884668 1.56973957 -13.70212637 0.15582403 0 0 Z M-37.375 39.375 C-44.34552231 48.49132363 -48.6355589 57.91366295 -49.375 69.375 C-41.97262305 68.82753254 -35.43587104 67.04003982 -28.375 64.8125 C-17.84184949 61.58494168 -7.27820328 58.78839694 3.4375 56.25 C13.18146888 53.93802462 22.90177932 51.58220448 32.5625 48.9375 C33.46782471 48.6904834 34.37314941 48.4434668 35.3059082 48.18896484 C39.56692612 47.05229424 39.56692612 47.05229424 43.625 45.375 C42.02725036 37.36888497 35.02378767 32.86479106 28.66503906 28.51879883 C6.10786308 13.70479492 -19.58463703 20.35874647 -37.375 39.375 Z " fill="#1C1C1C" transform="translate(264.375,188.625)"/>
<path d="M0 0 C0.90290771 -0.01409912 1.80581543 -0.02819824 2.73608398 -0.04272461 C18.94569382 0.07470402 32.39420379 8.50869264 45.203125 17.6640625 C46.98181601 18.92062163 48.81732722 20.09771497 50.6796875 21.2265625 C58.07924957 26.62412104 62.02512381 36.93256097 66.125 45 C66.47546387 45.68674805 66.82592773 46.37349609 67.18701172 47.08105469 C68.64634303 50.02912449 69.625 52.04138947 69.625 55.375 C65.61472515 54.07437032 63.93046902 52.86922648 61.625 49.375 C60.70005197 47.5141901 59.80657136 45.63755327 58.9375 43.75 C50.95099719 27.62001153 37.93142881 18.12829507 21.625 11.375 C6.7626331 6.48030556 -9.74182232 7.68715467 -24.109375 13.703125 C-40.94063772 22.32008725 -52.41370785 35.29930123 -58.55859375 53.296875 C-61.16855601 63.13730686 -62.62231524 74.35269898 -60.375 84.375 C-59.715 84.705 -59.055 85.035 -58.375 85.375 C-59.9573006 85.71320166 -61.54089375 86.04535939 -63.125 86.375 C-64.00671875 86.560625 -64.8884375 86.74625 -65.796875 86.9375 C-68.375 87.375 -68.375 87.375 -72.375 87.375 C-73.91336706 75.69989284 -74.4434822 63.8242742 -71.375 52.375 C-71.16875 51.53324219 -70.9625 50.69148438 -70.75 49.82421875 C-69.38684739 44.72014165 -67.58006497 40.60096559 -64.55859375 36.26171875 C-63.27546988 34.39588655 -63.27546988 34.39588655 -62.67578125 32.1171875 C-60.67525862 27.89986952 -57.43833813 25.04634345 -54.125 21.8125 C-53.46886719 21.15314453 -52.81273437 20.49378906 -52.13671875 19.81445312 C-48.45081948 16.16885693 -44.82357464 13.08754551 -40.375 10.375 C-39.42882812 9.77558594 -38.48265625 9.17617187 -37.5078125 8.55859375 C-25.46884668 1.56973957 -13.70212637 0.15582403 0 0 Z " fill="#262626" transform="translate(264.375,188.625)"/>
<path d="M0 0 C0.99 0.33 1.98 0.66 3 1 C0.22247995 8.09154054 -2.56990002 14.77391355 -7 21 C-7.66 21 -8.32 21 -9 21 C-9.38865234 21.86431641 -9.38865234 21.86431641 -9.78515625 22.74609375 C-14.19300418 30.92399812 -22.0881662 35.55317741 -29.875 40.0625 C-30.7198999 40.55177979 -31.5647998 41.04105957 -32.43530273 41.54516602 C-38.59048093 45 -38.59048093 45 -42 45 C-42 45.66 -42 46.32 -42 47 C-58.2758465 52.76865445 -77.41299219 51.69026426 -93.09692383 44.82788086 C-94.39494998 44.26321034 -95.69850792 43.71112928 -97.0065918 43.17016602 C-106.33358074 39.3055489 -112.60224682 36.00532517 -118.9296875 27.87890625 C-120.883211 25.75625294 -120.883211 25.75625294 -123.7578125 25.58984375 C-126.28790507 25.84708157 -128.57060301 26.25951574 -131 27 C-131.474375 26.05125 -131.94875 25.1025 -132.4375 24.125 C-134.43336086 21.04774543 -136.2029194 20.3846897 -139.75 19.625 C-141.16291041 19.39255345 -142.57896791 19.17611081 -144 19 C-144 20.98 -144 22.96 -144 25 C-144.33 25 -144.66 25 -145 25 C-145 23.02 -145 21.04 -145 19 C-145.66 18.67 -146.32 18.34 -147 18 C-143.31570462 15.81601047 -139.40672134 15.13217229 -135.25 14.375 C-134.57195312 14.2409375 -133.89390625 14.106875 -133.1953125 13.96875 C-128.3877922 13.0730523 -123.88030081 12.47043544 -119 13 C-117.25 15.19921875 -117.25 15.19921875 -116 18 C-105.08611455 31.9379412 -90.50957839 40.91962978 -73 44 C-53.11948418 45.74570862 -35.54956223 41.18763422 -19.5 29.1875 C-10.29222116 21.2444412 -5.05487752 10.82059719 0 0 Z " fill="#272727" transform="translate(329,282)"/>
<path d="M0 0 C9.85902754 7.73283616 16.74259358 17.35261512 21.78125 28.79296875 C21.78125 30.11296875 21.78125 31.43296875 21.78125 32.79296875 C21.12125 32.79296875 20.46125 32.79296875 19.78125 32.79296875 C19.36875 31.89835937 18.95625 31.00375 18.53125 30.08203125 C9.88340168 11.78059365 -2.54634051 0.52613292 -21.21875 -7.20703125 C-36.0811169 -12.10172569 -52.58557232 -10.89487658 -66.953125 -4.87890625 C-83.795631 3.74381213 -95.23623597 16.71896948 -101.40625 34.71484375 C-104.07591996 44.8287857 -104.57375545 55.37947545 -104.21875 65.79296875 C-104.87875 65.79296875 -105.53875 65.79296875 -106.21875 65.79296875 C-110.25368712 51.22901857 -107.18796803 33.48314004 -100.03125 20.41796875 C-88.66811192 2.53738048 -74.14221876 -7.56586046 -53.92578125 -12.80078125 C-34.22855115 -15.75678692 -16.30152972 -11.17762657 0 0 Z " fill="#E6E6E6" transform="translate(307.21875,207.20703125)"/>
<path d="M0 0 C0.66 0 1.32 0 2 0 C2.97521539 16.9037334 -5.44954418 33.08706337 -16.4453125 45.453125 C-29.3536357 58.3219732 -46.85632116 65.18210657 -64.875 65.4375 C-83.17065083 65.31503004 -99.46849651 58.47862929 -112.421875 45.65625 C-121 36.81818182 -121 36.81818182 -121 33 C-121.99 32.67 -122.98 32.34 -124 32 C-118.5650623 32.42927576 -118.5650623 32.42927576 -116.05078125 34.96875 C-115.19033203 36.22171875 -115.19033203 36.22171875 -114.3125 37.5 C-107.0956758 47.0859145 -98.02594977 53.41320489 -87 58 C-86.19820312 58.3403125 -85.39640625 58.680625 -84.5703125 59.03125 C-68.91378977 64.43350065 -50.49237474 61.7890889 -35.9375 54.8125 C-20.57406089 46.96371887 -9.55716261 34.45706356 -4 18 C-2.9357224 13.49147763 -2.20493209 8.94175003 -1.54296875 4.359375 C-1 1 -1 1 0 0 Z " fill="#D7D7D7" transform="translate(331,262)"/>
<path d="M0 0 C0.66 0 1.32 0 2 0 C1.42589056 3.71923074 -0.08537644 5.41081218 -2.6875 8.0625 C-16.61237619 23.28271351 -19.67945561 43.0693022 -19 63 C-19.66 63 -20.32 63 -21 63 C-25.03493712 48.43604982 -21.96921803 30.69017129 -14.8125 17.625 C-10.66038668 11.04632695 -5.48199784 5.48199784 0 0 Z " fill="#DDDDDD" transform="translate(222,210)"/>
<path d="M0 0 C5.89204874 -0.50352968 9.29167981 0.86597514 14 4.1875 C14.61375488 4.60676758 15.22750977 5.02603516 15.85986328 5.45800781 C17.05806768 6.27848616 18.25244607 7.10458811 19.44238281 7.93701172 C21.07374155 9.07952284 21.07374155 9.07952284 23.1796875 10.25390625 C31.82541497 15.33376916 36.09718709 26.97004078 40.5 35.625 C40.85054443 36.31182861 41.20108887 36.99865723 41.56225586 37.70629883 C43.02137937 40.65432388 44 42.66651639 44 46 C41.625 45.5 41.625 45.5 39 44 C38.55305471 42.21221886 38.12340505 40.41864121 37.7734375 38.609375 C33.63530756 24.64841136 23.06242934 13.53299515 11 6 C7.39797446 4.1565842 3.753236 2.51000597 0 1 C0 0.67 0 0.34 0 0 Z " fill="#363636" transform="translate(290,198)"/>
<path d="M0 0 C0.99 1.32 1.98 2.64 3 4 C3.85851562 3.85691406 4.71703125 3.71382813 5.6015625 3.56640625 C7.8046875 3.19921875 10.0078125 2.83203125 12.2109375 2.46484375 C13.77714844 2.20380859 13.77714844 2.20380859 15.375 1.9375 C17.25 1.625 19.125 1.3125 21 1 C21 1.99 21 2.98 21 4 C13.87629884 6.96726503 7.1043771 9.4794233 -0.5625 10.54296875 C-3.22483677 11.04215689 -5.49533115 11.98571262 -8 13 C-10.8125 13.125 -10.8125 13.125 -13 13 C-10.84480962 8.91158236 -8.46905114 6.48927295 -4.8125 3.6875 C-3.46091797 2.64142578 -3.46091797 2.64142578 -2.08203125 1.57421875 C-1.39496094 1.05472656 -0.70789063 0.53523438 0 0 Z " fill="#303030" transform="translate(163,274)"/>
<path d="M0 0 C11.04912336 1.05051088 20.63167134 10.04336135 27.7109375 17.8984375 C32.66298091 24.10814273 39 32.96203571 39 41 C38.34 41 37.68 41 37 41 C36.5875 40.10539062 36.175 39.21078125 35.75 38.2890625 C27.31371376 20.43535365 15.76252852 10.19021488 -2 2 C-1.34 1.34 -0.68 0.68 0 0 Z " fill="#D3D3D3" transform="translate(290,199)"/>
<path d="M0 0 C0.99 0.33 1.98 0.66 3 1 C0.22247995 8.09154054 -2.56990002 14.77391355 -7 21 C-7.66 21 -8.32 21 -9 21 C-9.25136719 21.57234375 -9.50273437 22.1446875 -9.76171875 22.734375 C-14.6248772 31.63226744 -24.27304464 37.40488864 -33 42 C-33.66 42 -34.32 42 -35 42 C-35.495 40.515 -35.495 40.515 -36 39 C-35.07058594 38.49210937 -34.14117187 37.98421875 -33.18359375 37.4609375 C-16.6263975 28.30054223 -7.98761875 17.09849639 0 0 Z " fill="#363636" transform="translate(329,282)"/>
<path d="M0 0 C5.4349377 0.42927576 5.4349377 0.42927576 7.94921875 2.96875 C8.80966797 4.22171875 8.80966797 4.22171875 9.6875 5.5 C15.87825813 13.76223552 23.53425111 19.89222218 33 24 C32.01 24.495 32.01 24.495 31 25 C30.67 25.66 30.34 26.32 30 27 C19.72512843 21.42533564 9.67499683 13.76936623 3 4 C3 3.01 3 2.02 3 1 C2.01 0.67 1.02 0.34 0 0 Z " fill="#DADADA" transform="translate(207,294)"/>
<path d="M0 0 C5.94 1.485 5.94 1.485 12 3 C7.49599249 6.37800563 7.49599249 6.37800563 4.21484375 7.38671875 C3.51939453 7.60263672 2.82394531 7.81855469 2.10742188 8.04101562 C1.39134766 8.25435547 0.67527344 8.46769531 -0.0625 8.6875 C-0.78244141 8.91244141 -1.50238281 9.13738281 -2.24414062 9.36914062 C-5.25930869 10.29020868 -7.83011728 11 -11 11 C-10.67 10.01 -10.34 9.02 -10 8 C-6.3962102 6.47839986 -3.94779314 6 0 6 C0 4.02 0 2.04 0 0 Z " fill="#333333" transform="translate(348,230)"/>
<path d="M0 0 C-2.15414871 2.15414871 -3.94350449 3.02244392 -6.6875 4.3125 C-11.17409454 6.50044741 -15.03229444 8.98109359 -19 12 C-19.66 11.01 -20.32 10.02 -21 9 C-6.86968085 -2.0106383 -6.86968085 -2.0106383 0 0 Z " fill="#D2D2D2" transform="translate(244,200)"/>
<path d="M0 0 C5.35984911 6.95030878 13 16.91039594 13 26 C10.625 25.5 10.625 25.5 8 24 C7.49701058 22.15570548 7.01446325 20.30186495 6.66796875 18.421875 C5.57299773 14.45180463 3.36202566 11.11760701 1.2421875 7.61328125 C-0.08863669 4.81352847 -0.25338121 3.05709937 0 0 Z " fill="#494949" transform="translate(321,218)"/>
<path d="M0 0 C0.66 0 1.32 0 2 0 C2.4284736 7.42687567 1.36274668 15.27450663 -2 22 C-2.66 22 -3.32 22 -4 22 C-3.41275531 17.00842012 -2.73379359 12.03477296 -2 7.0625 C-1.835 5.93972656 -1.67 4.81695312 -1.5 3.66015625 C-1 1 -1 1 0 0 Z " fill="#DFDFDF" transform="translate(331,262)"/>
<path d="M0 0 C0 0.99 0 1.98 0 3 C-2.07772471 3.86772029 -4.16243177 4.71873619 -6.25 5.5625 C-7.99023438 6.27599609 -7.99023438 6.27599609 -9.765625 7.00390625 C-12.86266644 7.95770524 -14.07321701 8.20983356 -17 7 C-16.34 7 -15.68 7 -15 7 C-15 6.34 -15 5.68 -15 5 C-15.66 4.67 -16.32 4.34 -17 4 C-15.41701974 3.5196682 -13.83360022 3.04078388 -12.25 2.5625 C-11.36828125 2.29566406 -10.4865625 2.02882813 -9.578125 1.75390625 C-6.23734987 0.77698261 -3.49651538 0 0 0 Z " fill="#515151" transform="translate(184,275)"/>
<path d="M0 0 C0.66 0.33 1.32 0.66 2 1 C1.34 1.66 0.68 2.32 0 3 C3.4409863 2.59517808 6.4790093 2.21808913 9.6875 0.875 C12.35872159 -0.13573249 13.33917412 0.20455311 16 1 C9.07644003 4.09382506 2.48906861 5.88660169 -5 7 C-6.8253125 7.309375 -6.8253125 7.309375 -8.6875 7.625 C-9.450625 7.74875 -10.21375 7.8725 -11 8 C-8.94045353 4.9106803 -8.15316432 4.35735706 -4.9375 2.875 C-2.26904813 1.72576774 -2.26904813 1.72576774 0 0 Z " fill="#999999" transform="translate(151,283)"/>
<path d="M0 0 C4.14000793 0.33606282 7.23932014 2.03913309 10.8125 4.0625 C11.78832031 4.61035156 12.76414062 5.15820312 13.76953125 5.72265625 C14.50558594 6.14417969 15.24164063 6.56570312 16 7 C15.67 7.99 15.34 8.98 15 10 C11.10391502 8.51095825 7.40902982 6.75621287 3.6875 4.875 C2.61886719 4.33617187 1.55023438 3.79734375 0.44921875 3.2421875 C-0.76314453 2.62730469 -0.76314453 2.62730469 -2 2 C-1.34 1.34 -0.68 0.68 0 0 Z " fill="#D1D1D1" transform="translate(290,199)"/>
<path d="M0 0 C0.66 0 1.32 0 2 0 C3.17713663 2.0780065 4.34171974 4.16151783 5.5 6.25 C5.83386719 6.83652344 6.16773438 7.42304688 6.51171875 8.02734375 C8.36076806 11.38582107 9 13.06645784 9 17 C8.34 17 7.68 17 7 17 C5.82592979 14.73272667 4.66060261 12.46165376 3.5 10.1875 C3.16613281 9.54490234 2.83226562 8.90230469 2.48828125 8.24023438 C0.99760916 5.30452301 0 3.33873483 0 0 Z " fill="#DBDBDB" transform="translate(320,223)"/>
<path d="M0 0 C7.62951555 -0.34855655 13.92444501 -0.0017506 21 3 C21 3.66 21 4.32 21 5 C13.84404654 4.29843593 6.98144819 2.69214979 0 1 C0 0.67 0 0.34 0 0 Z " fill="#E6E6E6" transform="translate(269,195)"/>
<path d="M0 0 C6.6 0 13.2 0 20 0 C19.67 0.99 19.34 1.98 19 3 C16.39521117 3.0809313 13.79293347 3.14045434 11.1875 3.1875 C10.08051758 3.22520508 10.08051758 3.22520508 8.95117188 3.26367188 C6.79296875 3.29296875 6.79296875 3.29296875 3 3 C2.01 2.01 1.02 1.02 0 0 Z " fill="#C3C3C3" transform="translate(256,194)"/>
<path d="M0 0 C-0.59283087 3.60571107 -2.02741777 5.54429438 -4.4375 8.25 C-5.05496094 8.95640625 -5.67242187 9.6628125 -6.30859375 10.390625 C-8 12 -8 12 -10 12 C-8.88685188 7.3247779 -5.68510408 0 0 0 Z " fill="#E6E6E6" transform="translate(224,210)"/>
<path d="M0 0 C0.99 0.33 1.98 0.66 3 1 C2.21658881 2.98244892 1.42302514 4.96088859 0.625 6.9375 C0.18414062 8.03964844 -0.25671875 9.14179688 -0.7109375 10.27734375 C-2 13 -2 13 -4 14 C-3.46148032 8.72250715 -2.22656164 4.74354436 0 0 Z " fill="#2E2E2E" transform="translate(329,282)"/>
<path d="M0 0 C3.94216678 0.2687841 5.56489814 0.55344809 8.375 3.4375 C10 6 10 6 10 8 C9.01 8.33 8.02 8.66 7 9 C3 4.375 3 4.375 3 1 C2.01 0.67 1.02 0.34 0 0 Z " fill="#B9B9B9" transform="translate(207,294)"/>
<path d="M0 0 C4.19469571 0.59924224 8.00999834 1.57499941 12 3 C11.67 3.66 11.34 4.32 11 5 C6.94393835 4.53199289 3.53411321 4.12046792 0 2 C0 1.34 0 0.68 0 0 Z " fill="#E6E6E6" transform="translate(238,319)"/>
<path d="M0 0 C0.66 0 1.32 0 2 0 C2.40178571 8.03571429 2.40178571 8.03571429 -1 12 C-1.02687279 10.18757948 -1.04633715 8.37504767 -1.0625 6.5625 C-1.07410156 5.55316406 -1.08570313 4.54382813 -1.09765625 3.50390625 C-1 1 -1 1 0 0 Z " fill="#D8D8D8" transform="translate(331,262)"/>
<path d="M0 0 C-2.42130331 2.42130331 -3.80111377 2.52840504 -7.125 3.125 C-8.03507812 3.29257813 -8.94515625 3.46015625 -9.8828125 3.6328125 C-10.58148438 3.75398437 -11.28015625 3.87515625 -12 4 C-11.67 3.01 -11.34 2.02 -11 1 C-6.95637513 -0.8380113 -4.26550147 -1.25455926 0 0 Z " fill="#626262" transform="translate(349,237)"/>
<path d="M0 0 C0 0.99 0 1.98 0 3 C-1.98 3 -3.96 3 -6 3 C-6 4.98 -6 6.96 -6 9 C-6.33 9 -6.66 9 -7 9 C-7 7.02 -7 5.04 -7 3 C-7.66 2.67 -8.32 2.34 -9 2 C-5.86501708 0.14223235 -3.62528568 -0.20140476 0 0 Z " fill="#606060" transform="translate(191,298)"/>
<path d="M0 0 C5.02254631 -0.2954439 7.89542386 0.01485372 12 3 C11.67 3.66 11.34 4.32 11 5 C7.27566618 3.7874262 3.62197194 2.49140021 0 1 C0 0.67 0 0.34 0 0 Z " fill="#464646" transform="translate(290,198)"/>
<path d="M0 0 C-3.44450737 2.29633824 -5.93812283 2.54016485 -10 3 C-10.33 2.01 -10.66 1.02 -11 0 C-7.01803543 -1.05404945 -4.01804691 -0.84098656 0 0 Z " fill="#D2D2D2" transform="translate(288,323)"/>
<path d="M0 0 C5.53846154 -0.36923077 5.53846154 -0.36923077 7.875 1.5 C8.24625 1.995 8.6175 2.49 9 3 C8.67 3.66 8.34 4.32 8 5 C4.62496331 3.8141763 2.35277269 2.72426311 0 0 Z " fill="#C1C1C1" transform="translate(297,204)"/>
<path d="M0 0 C0.33 0 0.66 0 1 0 C1.125 3.375 1.125 3.375 1 7 C0.34 7.66 -0.32 8.32 -1 9 C-2.1875 7.3125 -2.1875 7.3125 -3 5 C-1.6875 2.25 -1.6875 2.25 0 0 Z " fill="#CFCFCF" transform="translate(208,227)"/>
<path d="M0 0 C2 1.3125 2 1.3125 4 3 C4 3.99 4 4.98 4 6 C-0.875 4.25 -0.875 4.25 -2 2 C-1.34 2 -0.68 2 0 2 C0 1.34 0 0.68 0 0 Z " fill="#D5D5D5" transform="translate(225,309)"/>
<path d="M0 0 C0.66 0.99 1.32 1.98 2 3 C0.68 4.32 -0.64 5.64 -2 7 C-2.66 6.34 -3.32 5.68 -4 5 C-2.68 3.35 -1.36 1.7 0 0 Z " fill="#CACACA" transform="translate(319,296)"/>
<path d="M0 0 C0.66 0 1.32 0 2 0 C2 0.66 2 1.32 2 2 C2.99 2.66 3.98 3.32 5 4 C2.36 4.33 -0.28 4.66 -3 5 C-1.625 2.5 -1.625 2.5 0 0 Z " fill="#474747" transform="translate(153,282)"/>
<path d="M0 0 C3.45925163 1.2491742 6.14693203 2.67527795 9 5 C8.01 5.33 7.02 5.66 6 6 C2.8125 4.1875 2.8125 4.1875 0 2 C0 1.34 0 0.68 0 0 Z " fill="#333333" transform="translate(301,202)"/>
<path d="M0 0 C2.97 0 5.94 0 9 0 C7.25 1.5625 7.25 1.5625 5 3 C2.8125 2.8125 2.8125 2.8125 1 2 C0.67 1.34 0.34 0.68 0 0 Z " fill="#A4A4A4" transform="translate(357,232)"/>
<path d="M0 0 C3.35595828 0.59927826 5.37801226 1.84622436 8 4 C6.02 4 4.04 4 2 4 C1.34 2.68 0.68 1.36 0 0 Z " fill="#494949" transform="translate(308,207)"/>
</svg>
